#!OML:ASF H:\Punching\Project 1\Capture day 1\Session 1\female.ASF
:FULLY-SPECIFIED
:DEGREES
1607
root -0.161839 15.3642 6.88707 10.1533 -11.246 -1.23597
lowerback -1.36528 0.638257 6.04853
upperback -6.70047 0.940141 -0.664553
thorax -6.12607 0.105201 -4.11895
lowerneck -5.98851 5.70138 11.8312
upperneck 27.9996 8.12751 -7.29582
head 10.7617 4.18355 -3.74423
rclavicle -1.97014e-014 -1.59525e-014
rhumerus -10.2362 12.4899 -66.9466
rradius 120.301
rwrist 3.93889
rhand -21.2345 -8.55161
rfingers 7.12502
rthumb 5.14796 -38.4691
lclavicle -1.97014e-014 -1.59525e-014
lhumerus -25.4216 3.75424 28.8233
lradius 138.999
lwrist 8.96384
lhand -1.27276 26.8513
lfingers 7.12502
lthumb 24.3707 55.3216
rfemur -10.7022 1.74478 19.4952
rtibia 30.7999
rfoot -25.4632 -14.7472
rtoes -7.2121
lfemur -35.3763 4.02188 -7.83903
ltibia 44.3521
lfoot -11.3594 10.9945
ltoes -10.8821
1608
root -0.12191 15.3731 6.95357 10.3376 -12.2766 -1.17677
lowerback -1.36722 0.663964 6.01865
upperback -6.77562 0.972514 -0.692033
thorax -6.20153 0.116852 -4.13287
lowerneck -5.80616 5.91911 12.1451
upperneck 28.0035 8.46396 -7.51141
head 10.794 4.34933 -3.83896
rclavicle 4.76773e-015 -3.97569e-016
rhumerus -9.40804 13.4484 -67.3926
rradius 120.955
rwrist 3.1677
rhand -22.6408 -8.0059
rfingers 7.12502
rthumb 3.79 -37.9519
lclavicle 4.76773e-015 -3.97569e-016
lhumerus -24.6507 4.17812 28.9535
lradius 139.448
lwrist 8.8043
lhand -2.0805 26.4518
lfingers 7.12502
lthumb 23.5962 55.024
rfemur -10.7517 2.13228 19.0272
rtibia 30.515
rfoot -25.336 -14.24
rtoes -7.58891
lfemur -35.0364 3.29549 -7.09268
ltibia 41.4489
lfoot -11.0702 12.2186
ltoes -10.3425
1609
root -0.0782741 15.3829 7.02219 10.5407 -13.3863 -1.12446
lowerback -1.37604 0.695307 5.99463
upperback -6.84607 1.0119 -0.716306
thorax -6.26723 0.132133 -4.14685
lowerneck -5.63736 6.15496 12.465
upperneck 27.998 8.82367 -7.72489
head 10.831 4.52616 -3.9302
rclavicle 4.17883e-014 4.07509e-015
rhumerus -8.61391 14.4493 -67.8572
rradius 121.566
rwrist 2.5184
rhand -24.0443 -7.36933
rfingers 7.12502
rthumb 2.43457 -37.3352
lclavicle 4.17883e-014 4.07509e-015
lhumerus -23.9101 4.62361 29.1532
lradius 139.867
lwrist 8.6294
lhand -2.89236 26.002
lfingers 7.12502
lthumb 22.8173 54.6724
rfemur -10.8227 2.56166 18.5304
rtibia 30.1862
rfoot -25.1739 -13.7121
rtoes -8.01297
lfemur -34.6008 2.48566 -6.26388
ltibia 38.5167
lfoot -10.6492 13.617
ltoes -9.54677
1610
root -0.0309674 15.3934 7.09284 10.7542 -14.5786 -1.07306
lowerback -1.38786 0.730607 5.96854
upperback -6.90681 1.05593 -0.73923
thorax -6.32026 0.150476 -4.15829
lowerneck -5.48113 6.41183 12.7984
upperneck 27.9784 9.21144 -7.9437
head 10.8723 4.71618 -4.02108
rclavicle -4.41364e-015 -1.38652e-014
rhumerus -7.84043 15.4772 -68.3366
rradius 122.132
rwrist 1.98564
rhand -25.3558 -6.67702
rfingers 7.12502
rthumb 1.16791 -36.6536
lclavicle -4.41364e-015 -1.38652e-014
lhumerus -23.2059 5.08352 29.4035
lradius 140.255
lwrist 8.45596
lhand -3.73194 25.4981
lfingers 7.12502
lthumb 22.0114 54.2656
rfemur -10.9122 3.0314 17.9967
rtibia 29.8174
rfoot -24.9936 -13.1522
rtoes -8.43636
lfemur -34.0721 1.60381 -5.37062
ltibia 35.6136
lfoot -10.102 15.1573
ltoes -8.44008
1611
root 0.0197591 15.4046 7.16568 10.9717 -15.8507 -1.01949
lowerback -1.39577 0.768474 5.93376
upperback -6.96079 1.10313 -0.761124
thorax -6.36792 0.171209 -4.16388
lowerneck -5.32581 6.68695 13.1437
upperneck 27.9423 9.62422 -8.16576
head 10.9145 4.9183 -4.11101
rclavicle -2.53016e-014 1.78906e-015
rhumerus -7.08977 16.5165 -68.8287
rradius 122.685
rwrist 1.47114
rhand -26.3509 -6.02861
rfingers 7.12502
rthumb 0.206792 -36.0083
lclavicle -2.53016e-014 1.78906e-015
lhumerus -22.536 5.53073 29.7038
lradius 140.616
lwrist 8.24858
lhand -4.58551 24.9758
lfingers 7.12502
lthumb 21.1916 53.8375
rfemur -11.0167 3.53878 17.4226
rtibia 29.4124
rfoot -24.8001 -12.5559
rtoes -8.84243
lfemur -33.4595 0.662968 -4.43306
ltibia 32.7995
lfoot -9.45579 16.8023
ltoes -7.06502
1612
root 0.0736313 15.4161 7.24042 11.1855 -17.1919 -0.961317
lowerback -1.39511 0.805645 5.88443
upperback -7.00463 1.14922 -0.782744
thorax -6.40979 0.192636 -4.16102
lowerneck -5.17428 6.9775 13.5069
upperneck 27.8903 10.059 -8.39918
head 10.9591 5.13083 -4.20416
rclavicle 2.70409e-014 3.8763e-015
rhumerus -6.35562 17.5637 -69.3312
rradius 123.225
rwrist 0.954309
rhand -27.015 -5.49294
rfingers 7.12502
rthumb -0.434544 -35.4722
lclavicle 2.70409e-014 3.8763e-015
lhumerus -21.8933 5.95123 30.0499
lradius 140.946
lwrist 7.99484
lhand -5.45949 24.4469
lfingers 7.12502
lthumb 20.3519 53.4005
rfemur -11.1311 4.08049 16.8087
rtibia 28.973
rfoot -24.5962 -11.9295
rtoes -9.22799
lfemur -32.7747 -0.318693 -3.47817
ltibia 30.1331
lfoot -8.78369 18.501
ltoes -5.49136
1613
root 0.130656 15.4278 7.31727 11.393 -18.5925 -0.901653
lowerback -1.38651 0.841259 5.82865
upperback -7.04169 1.19317 -0.806084
thorax -6.44922 0.213533 -4.15637
lowerneck -5.00408 7.2782 13.897
upperneck 27.8146 10.5114 -8.65214
head 10.9998 5.35252 -4.30607
rclavicle -5.9946e-016 -1.64494e-014
rhumerus -5.65143 18.6315 -69.849
rradius 123.744
rwrist 0.462167
rhand -27.4602 -5.08065
rfingers 7.12502
rthumb -0.864597 -35.0586
lclavicle -5.9946e-016 -1.64494e-014
lhumerus -21.2607 6.31915 30.4453
lradius 141.238
lwrist 7.68405
lhand -6.35923 23.9023
lfingers 7.12502
lthumb 19.487 52.9458
rfemur -11.2511 4.64615 16.1581
rtibia 28.4988
rfoot -24.3845 -11.2698
rtoes -9.59523
lfemur -32.0394 -1.31171 -2.53327
ltibia 27.6734
lfoot -8.18717 20.1849
ltoes -3.83086
1614
root 0.190696 15.4396 7.39646 11.593 -20.0412 -0.842489
lowerback -1.37175 0.872506 5.76687
upperback -7.07241 1.23121 -0.829387
thorax -6.48614 0.232058 -4.14814
lowerneck -4.8099 7.58635 14.3157
upperneck 27.7135 10.9796 -8.92937
head 11.0354 5.58242 -4.41916
rclavicle -4.05428e-014 -1.59028e-015
rhumerus -4.98169 19.7412 -70.3798
rradius 124.211
rwrist 0.0792851
rhand -27.8976 -4.79169
rfingers 7.12502
rthumb -1.28703 -34.7676
lclavicle -4.05428e-014 -1.59028e-015
lhumerus -20.6288 6.64068 30.8823
lradius 141.494
lwrist 7.31784
lhand -7.26978 23.3367
lfingers 7.12502
lthumb 18.6113 52.4664
rfemur -11.3726 5.22833 15.4747
rtibia 27.9889
rfoot -24.1623 -10.5818
rtoes -9.95596
lfemur -31.2765 -2.27668 -1.63165
ltibia 25.4727
lfoot -7.74577 21.7784
ltoes -2.23299
1615
root 0.253859 15.4511 7.47798 11.7901 -21.5306 -0.790381
lowerback -1.35839 0.900166 5.71004
upperback -7.09724 1.26413 -0.853615
thorax -6.51652 0.248055 -4.14342
lowerneck -4.57951 7.897 14.765
upperneck 27.5808 11.4581 -9.23248
head 11.0613 5.81853 -4.54537
rclavicle 7.80447e-014 1.23246e-014
rhumerus -4.34662 20.884 -70.9217
rradius 124.625
rwrist -0.217566
rhand -28.3547 -4.57887
rfingers 7.12502
rthumb -1.72849 -34.5516
lclavicle 7.80447e-014 1.23246e-014
lhumerus -19.9776 6.92592 31.3514
lradius 141.712
lwrist 6.91836
lhand -8.186 22.7428
lfingers 7.12502
lthumb 17.7299 51.9545
rfemur -11.4981 5.82156 14.7653
rtibia 27.4394
rfoot -23.9267 -9.87037
rtoes -10.3273
lfemur -30.5154 -3.13143 -0.816883
ltibia 23.5796
lfoot -7.47101 23.1934
ltoes -0.81743
